<svg style="position: absolute; overflow: hidden;" aria-hidden="true" version="1.1"
    xmlns="http://www.w3.org/2000/svg" xmlns:xlink="http://www.w3.org/1999/xlink">
    <defs>
        <symbol id="icon-today" viewBox="0 0 24 24" fill="none">
            <path fill="currentColor"
                d="M8.8563 16.285c-0.6803 0-1.2538-0.2348-1.7205-0.7045-0.4666-0.4697-0.7-1.0447-0.7-1.725 0-0.6803 0.2349-1.2538 0.7048-1.7205 0.4696-0.4667 1.0446-0.7 1.725-0.7 0.6801 0 1.2536 0.2349 1.7202 0.7047 0.4667 0.4697 0.7 1.0447 0.7 1.725 0 0.6802-0.2348 1.2536-0.7045 1.7203-0.4696 0.4667-1.0446 0.7-1.725 0.7zM4.5538 22.1487c-0.46 0-0.8588-0.1689-1.1965-0.5067-0.3378-0.3377-0.5067-0.7365-0.5067-1.1965l0-15.3925c0-0.4617 0.1689-0.8619 0.5067-1.2008 0.3377-0.339 0.7365-0.5085 1.1965-0.5085l1.5713 0 0-0.6462c0-0.2392 0.083-0.4413 0.249-0.6063 0.1662-0.165 0.3682-0.2475 0.606-0.2475 0.2448 0 0.4513 0.0825 0.6195 0.2475 0.1682 0.165 0.2522 0.3671 0.2522 0.6063l0 0.6462 8.2965 0V2.6975c0-0.2392 0.0831-0.4413 0.2493-0.6063 0.166-0.165 0.3679-0.2475 0.6057-0.2475 0.245 0 0.4515 0.0825 0.6195 0.2475 0.1682 0.165 0.2523 0.3671 0.2523 0.6063v0.6462l1.5712 0c0.4617 0 0.862 0.1696 1.2008 0.5086 0.339 0.3388 0.5085 0.739 0.5085 1.2007v15.3925c0 0.46-0.1695 0.8588-0.5085 1.1965-0.3388 0.3378-0.7391 0.5067-1.2008 0.5067zM4.5538 20.4455h14.8925V9.7493l-14.8925 0zM4.5538 8.2493l14.8925 0V5.053H4.5538z" />
        </symbol>
        <symbol id="icon-travel" viewBox="0 0 24 24" fill="none">
            <path fill="currentColor"
                d="M19.1498 21.1383c-0.7272 0-1.3549-0.2161-1.8832-0.6483-0.5282-0.4323-0.861-0.9501-0.9983-1.5535h-5.1935c-1.1132 0-2.0349-0.3654-2.7652-1.0962-0.7304-0.731-1.0955-1.6535-1.0955-2.7675 0-1.11 0.3651-2.0305 1.0955-2.7615 0.7303-0.7309 1.652-1.0963 2.7652-1.0963h1.925c0.6702 0 1.2193-0.2141 1.6473-0.6425 0.428-0.4281 0.642-0.9775 0.642-1.648 0-0.6705-0.214-1.2194-0.642-1.6467-0.428-0.4275-0.9771-0.6413-1.6473-0.6413l-5.2625 0C7.5793 7.2399 7.2404 7.7577 6.7206 8.19 6.2006 8.6222 5.577 8.8383 4.8498 8.8383c-0.8355 0-1.5423-0.2891-2.1205-0.8673-0.578-0.5781-0.867-1.285-0.867-2.1205 0-0.8356 0.289-1.5425 0.867-2.1205 0.5782-0.5778 1.285-0.8667 2.1205-0.8667 0.7272 0 1.3507 0.2161 1.8708 0.6482 0.5198 0.4324 0.8587 0.9502 1.0167 1.5535l5.2625 0c1.112 0 2.0335 0.3655 2.7645 1.0963 0.7308 0.731 1.0963 1.6525 1.0963 2.7645 0 1.112-0.3655 2.0335-1.0963 2.7645-0.731 0.7308-1.6525 1.0962-2.7645 1.0962h-1.925c-0.6713 0-1.2207 0.2138-1.648 0.6413-0.4275 0.4273-0.6413 0.9756-0.6413 1.645 0 0.6733 0.2138 1.2236 0.6413 1.651 0.4273 0.4275 0.9767 0.6412 1.648 0.6412h5.1935c0.154-0.6033 0.4909-1.1211 1.0108-1.5535 0.52-0.4321 1.1435-0.6482 1.8707-0.6482 0.8355 0 1.5423 0.2891 2.1205 0.8672 0.578 0.5782 0.867 1.285 0.867 2.1205 0 0.8357-0.289 1.5425-0.867 2.1205-0.5782 0.5779-1.285 0.8668-2.1205 0.8668zM4.8498 7.2008c0.3833 0 0.7042-0.1292 0.9625-0.3875 0.2583-0.2584 0.3875-0.5792 0.3875-0.9625 0-0.3833-0.1292-0.7042-0.3875-0.9625C5.554 4.63 5.2331 4.5008 4.8498 4.5008c-0.3833 0-0.7042 0.1292-0.9625 0.3875C3.629 5.1466 3.4998 5.4675 3.4998 5.8508c0 0.3833 0.1292 0.7041 0.3875 0.9625 0.2583 0.2583 0.5792 0.3875 0.9625 0.3875z" />
        </symbol>
        <symbol id="icon-diary" viewBox="0 0 24 24" fill="none">
            <path fill="currentColor"
                d="M5.5121 15.9515c0.2371-0.1517 0.4946-0.2669 0.7722-0.3457 0.2777-0.0791 0.5757-0.1185 0.894-0.1185h0.8338l0-11.9821-0.8338 0c-0.4681 0-0.8629 0.1617-1.1842 0.485-0.3213 0.3234-0.482 0.7191-0.482 1.1873zM9.6733 15.4873h8.8208V3.5053l-8.8208 0zM7.1783 22.1487c-0.9211 0-1.7061-0.3243-2.3547-0.973-0.6487-0.6486-0.973-1.4335-0.973-2.3547l0-13.6435c0-0.9228 0.3243-1.7092 0.973-2.359 0.6486-0.6498 1.4336-0.9748 2.3547-0.9748l11.268 0c0.4742 0 0.8776 0.1664 1.2103 0.4991 0.3327 0.3326 0.499 0.736 0.499 1.2102v12.9348c0 0.163-0.0417 0.3107-0.125 0.4432s-0.19 0.2257-0.32 0.2795c-0.3048 0.1262-0.5439 0.3317-0.7173 0.6165-0.1733 0.285-0.26 0.6138-0.26 0.9862 0 0.3725 0.0863 0.7002 0.2588 0.983 0.1725 0.2831 0.4109 0.486 0.7152 0.609 0.144 0.0627 0.2548 0.172 0.3323 0.328 0.0773 0.156 0.116 0.3451 0.116 0.5673v0.0278c0 0.2268-0.0806 0.4202-0.2418 0.5802-0.161 0.1602-0.3583 0.2402-0.592 0.2402zM7.1668 20.4872h10.35c-0.1406-0.237-0.25-0.4987-0.328-0.7852-0.078-0.2867-0.117-0.5801-0.117-0.8802 0-0.3179 0.0395-0.6158 0.1183-0.8938 0.079-0.278 0.1962-0.5378 0.3517-0.7793H7.1686c-0.4577 0-0.8482 0.1617-1.1715 0.485-0.3234 0.3234-0.485 0.719-0.485 1.187 0 0.4644 0.1616 0.8582 0.485 1.1815 0.3233 0.3234 0.7132 0.485 1.1697 0.485z" />
        </symbol>
        <symbol id="icon-profile" viewBox="0 0 24 24" fill="none">
            <path fill="currentColor"
                d="M5.5741 17.5585c1.046-0.7253 2.0836-1.2818 3.113-1.6695 1.0293-0.3877 2.1345-0.5815 3.3155-0.5815 1.1812 0 2.2916 0.1953 3.3312 0.586 1.0395 0.3908 2.0786 0.9458 3.1173 1.665 0.7255-0.904 1.2394-1.8053 1.5417-2.7038 0.3024-0.8986 0.4535-1.8505 0.4535-2.8555 0-2.3976-0.8081-4.4048-2.4245-6.0215-1.6163-1.6165-3.6232-2.4247-6.0207-2.4247-2.3973 0-4.4046 0.8082-6.0218 2.4247-1.617 1.6167-2.4255 3.6239-2.4255 6.0215 0 1.0047 0.1545 1.9559 0.4633 2.8535 0.3088 0.8977 0.8278 1.7996 1.557 2.7058zM11.9953 12.791c-0.9761 0-1.7961-0.3337-2.46-1.001-0.664-0.6675-0.996-1.488-0.996-2.4615 0-0.9735 0.3335-1.7934 1.0005-2.4598 0.6672-0.6663 1.4889-0.9995 2.465-0.9995 0.9762 0 1.7962 0.3348 2.46 1.0043 0.664 0.6693 0.996 1.4907 0.996 2.4642 0 0.9737-0.3335 1.7927-1.0005 2.457-0.6671 0.6642-1.4888 0.9963-2.465 0.9963zM12.0083 22.1487c-1.3921 0-2.7052-0.266-3.9392-0.7982-1.2342-0.5322-2.313-1.2599-3.2365-2.1833-0.9237-0.9235-1.6516-2.0005-2.1838-3.231-0.5321-1.2303-0.7982-2.545-0.7982-3.9442 0-1.3945 0.2665-2.7058 0.7995-3.934 0.533-1.2283 1.2607-2.3036 2.183-3.2257 0.9222-0.9224 1.9986-1.651 3.2292-2.186 1.2307-0.535 2.5457-0.8026 3.945-0.8026 1.3945 0 2.7059 0.2675 3.934 0.8026 1.2284 0.5349 2.3036 1.2636 3.2258 2.186 0.9223 0.9221 1.651 1.9978 2.186 3.227 0.535 1.2291 0.8025 2.5397 0.8025 3.9317 0 1.3922-0.2675 2.7055-0.8025 3.94-0.535 1.2347-1.2637 2.3131-2.186 3.2353-0.9222 0.9223-1.9978 1.6499-3.227 2.1829s-2.5398 0.7995-3.9318 0.7995zM12.0001 20.4455c0.9047 0 1.7846-0.1293 2.6397-0.388 0.855-0.2588 1.7075-0.7156 2.5575-1.3702-0.854-0.5961-1.7106-1.0474-2.57-1.3541-0.8595-0.3066-1.7352-0.46-2.6272-0.46s-1.7668 0.1534-2.6243 0.46c-0.8573 0.3067-1.713 0.758-2.567 1.3541 0.85 0.6546 1.7015 1.1114 2.5545 1.3702 0.8532 0.2587 1.7321 0.388 2.6368 0.388zM12.0001 11.2192c0.5542 0 1.0076-0.1751 1.3602-0.5254 0.3527-0.3504 0.529-0.8039 0.529-1.3606 0-0.5566-0.1763-1.0111-0.529-1.3635-0.3526-0.3525-0.806-0.5287-1.3602-0.5287s-1.0076 0.1762-1.3603 0.5287c-0.3526 0.3524-0.529 0.8069-0.529 1.3635 0 0.5567 0.1764 1.0102 0.529 1.3606 0.3527 0.3503 0.8061 0.5254 1.3603 0.5254z" />
        </symbol>
        <symbol id="breadcrumbs-arrow" viewBox="0 0 24 24" fill="none">

            <path stroke="currentColor" fill="currentColor"
                d="M9.3867 6.6719c0.1008 0 0.1778 0.0304 0.2559 0.1084l4.9443 4.9443c0.0539 0.0539 0.0791 0.0959 0.0908 0.124v1e-3c0.0148 0.0356 0.0235 0.0753 0.0235 0.124s-87e-4 0.0885-0.0235 0.1241v9e-4c-0.0117 0.0282-0.0369 0.0701-0.0908 0.1241l-4.9687 4.9687c-0.0778 0.0778-0.145 0.0996-0.2256 0.0967-0.0941-35e-4-0.1749-0.0354-0.2608-0.1211-0.0781-0.0781-0.1093-0.155-0.1093-0.2559 0-0.1009 0.0312-0.1777 0.1093-0.2558l4.6817-4.6817-4.7071-4.707C9.0288 7.1889 9.0068 7.1226 9.0098 7.042c34e-4-0.0943 0.036-0.1757 0.122-0.2617 0.078-0.0778 0.1543-0.1084 0.2549-0.1084z" />
        </symbol>
    </defs>
</svg> 