<svg width="18" height="18" viewBox="0 0 18 18" fill="none" xmlns="http://www.w3.org/2000/svg">
<path d="M16.2334 0.5C16.4921 0.500013 16.672 0.5792 16.8135 0.720703C16.9547 0.862117 17.0332 1.04145 17.0332 1.2998C17.0332 1.55844 16.9549 1.73839 16.8135 1.87988L10.2793 8.41309L9.92578 8.7666L10.2793 9.12012L16.8135 15.6533C16.9549 15.7948 17.0332 15.9747 17.0332 16.2334C17.0332 16.4921 16.955 16.672 16.8135 16.8135C16.672 16.955 16.4921 17.0332 16.2334 17.0332C15.9747 17.0332 15.7948 16.9549 15.6533 16.8135L9.12012 10.2793L8.7666 9.92578L8.41309 10.2793L1.87988 16.8135C1.73839 16.9549 1.55844 17.0332 1.2998 17.0332C1.04145 17.0332 0.862117 16.9547 0.720703 16.8135C0.5792 16.672 0.500013 16.4921 0.5 16.2334C0.5 15.9747 0.57919 15.7948 0.720703 15.6533L7.60742 8.7666L0.720703 1.87988C0.579189 1.73837 0.5 1.55852 0.5 1.2998C0.50004 1.04119 0.579225 0.862181 0.720703 0.720703C0.862181 0.579225 1.04119 0.50004 1.2998 0.5C1.55852 0.5 1.73837 0.579189 1.87988 0.720703L8.7666 7.60742L15.6533 0.720703C15.7948 0.57919 15.9747 0.5 16.2334 0.5Z" fill="black" stroke="black"/>
</svg>
